<svg id="Layer_1" height="512" viewBox="0 0 512 512" width="512" xmlns="http://www.w3.org/2000/svg" data-name="Layer 1"><path d="m298.5 80.23a22.43 22.43 0 1 1 0 44.86h-3.97l-.33-.05a37.794 37.794 0 0 0 .33-5.02v-16.59a38.106 38.106 0 0 0 -7.83-23.19l.01-.01z" fill="#4a5160"/><path d="m57 446h397v34h-397z" fill="#c79a83"/><path d="m91.94 317.22h63.13v56.39h-63.13z" fill="#5fcda4"/><path d="m224.43 251.44h63.14v122.17h-63.14z" fill="#5fcda4"/><path d="m356.93 213.85h63.13v159.76h-63.13z" fill="#5fcda4"/><path d="m443.16 161.54v28.48h-108.28v-28.48a29.962 29.962 0 0 1 29.96-29.96h48.36a29.962 29.962 0 0 1 29.96 29.96z" fill="#f3ce7d"/><path d="m428.39 71.35v18.14a39.37 39.37 0 1 1 -78.74 0v-24.14l25.67-3.59a27.244 27.244 0 0 1 18.57 4.1 27.239 27.239 0 0 0 24.27 2.67l8.55-3.18 1.19-.21a39.725 39.725 0 0 1 .49 6.21z" fill="#ffd8b7"/><path d="m427.9 65.14-1.19.21-8.55 3.18a27.239 27.239 0 0 1 -24.27-2.67 27.244 27.244 0 0 0 -18.57-4.1l-25.67 3.59v-33.37h39.37a39.382 39.382 0 0 1 38.88 33.16z" fill="#6d7486"/><path d="m294.53 103.43v8.62a10.889 10.889 0 0 1 -3.26.51c-11.66 0-18.67-19.79-18.67-19.79a65.247 65.247 0 0 1 -46.3 19.28h-8.34v-8.62a38.283 38.283 0 0 1 65.36-27.07 37.723 37.723 0 0 1 3.38 3.88 38.106 38.106 0 0 1 7.83 23.19z" fill="#6d7486"/><path d="m294.53 112.05v7.97a37.794 37.794 0 0 1 -.33 5.02 38.285 38.285 0 0 1 -76.24-5.02v-7.97h8.34a65.247 65.247 0 0 0 46.3-19.28s7.01 19.79 18.67 19.79a10.889 10.889 0 0 0 3.26-.51z" fill="#ffd8b7"/><path d="m304.86 195.17v32.85h-94.53v-32.85a26.157 26.157 0 0 1 26.16-26.16h42.21a26.157 26.157 0 0 1 26.16 26.16z" fill="#fb6771"/><path d="m175.12 261.54v28.48h-108.28v-28.48a29.962 29.962 0 0 1 29.96-29.96h48.36a29.962 29.962 0 0 1 29.96 29.96z" fill="#71c2ff"/><path d="m159.86 165.14-1.19.21-8.55 3.18a27.239 27.239 0 0 1 -24.27-2.67 27.256 27.256 0 0 0 -18.57-4.1l-25.67 3.59v-33.37h39.37a39.382 39.382 0 0 1 38.88 33.16z" fill="#6d7486"/><path d="m160.35 171.35v18.14a39.37 39.37 0 1 1 -78.74 0v-24.14l25.67-3.59a27.256 27.256 0 0 1 18.57 4.1 27.239 27.239 0 0 0 24.27 2.67l8.55-3.18 1.19-.21a39.725 39.725 0 0 1 .49 6.21z" fill="#ffd8b7"/><path d="m91.94 373.61h63.13v72.41h-63.13z" fill="#eb7288"/><path d="m224.43 373.61h63.14v72.41h-63.14z" fill="#eb7288"/><path d="m356.93 373.61h63.13v72.41h-63.13z" fill="#eb7288"/><path d="m57 446h30v34h-30z" fill="#a88271"/><path d="m394.84 131.58h-30a29.962 29.962 0 0 0 -29.96 29.96v28.48h30v-28.48a29.962 29.962 0 0 1 29.96-29.96z" fill="#d6b574"/><path d="m266.49 169.01h-30a26.157 26.157 0 0 0 -26.16 26.16v32.85h30v-32.85a26.157 26.157 0 0 1 26.16-26.16z" fill="#d1616b"/><path d="m126.8 231.58h-30a29.962 29.962 0 0 0 -29.96 29.96v28.48h30v-28.48a29.962 29.962 0 0 1 29.96-29.96z" fill="#67aad3"/><path d="m91.94 317.22h30v56.39h-30z" fill="#5caa8a"/><path d="m224.43 251.44h30v122.17h-30z" fill="#5caa8a"/><path d="m356.93 213.85h30v159.76h-30z" fill="#5caa8a"/><path d="m91.94 373.61h30v72.41h-30z" fill="#c46a7d"/><path d="m224.43 373.61h30v72.41h-30z" fill="#c46a7d"/><path d="m356.93 373.61h30v72.41h-30z" fill="#c46a7d"/><path d="m349.65 31.98v33.37l25.67-3.59a27.112 27.112 0 0 1 4.33-.24v-29.54z" fill="#4a5160"/><path d="m271.246 68.195a38.3 38.3 0 0 0 -53.286 35.235v8.62h8.34a65.205 65.205 0 0 0 21.66-3.712v-4.908a38.3 38.3 0 0 1 23.286-35.235z" fill="#4a5160"/><path d="m81.61 131.98v33.37l25.67-3.59a27.125 27.125 0 0 1 4.33-.24v-29.54z" fill="#4a5160"/><path d="m379.65 89.49v-27.971a26.781 26.781 0 0 0 -4.33.241l-25.67 3.59v24.14a39.379 39.379 0 0 0 54.372 36.4 39.381 39.381 0 0 1 -24.372-36.4z" fill="#e8c5aa"/><path d="m226.3 112.05h-8.34v7.97a38.294 38.294 0 0 0 53.282 35.235 38.293 38.293 0 0 1 -23.282-35.235v-11.682a65.205 65.205 0 0 1 -21.66 3.712z" fill="#e8c5aa"/><path d="m111.61 189.49v-27.971a26.781 26.781 0 0 0 -4.33.241l-25.67 3.59v24.14a39.375 39.375 0 0 0 54.368 36.4 39.374 39.374 0 0 1 -24.368-36.4z" fill="#e8c5aa"/><g fill="#284268"><path d="m204 195.17v32.85a6.278 6.278 0 0 0 6.334 5.98h94.524a6.106 6.106 0 0 0 6.142-5.98v-32.85a32.325 32.325 0 0 0 -32.3-32.17h-11.832a44.611 44.611 0 0 0 32.27-31.93 28.54 28.54 0 0 0 -.638-57.07h-9a44.888 44.888 0 0 0 -33.237-14.973 44.42 44.42 0 0 0 -44.263 44.404v16.591a44.507 44.507 0 0 0 33.625 42.978h-9.136c-17.73 0-32.489 14.439-32.489 32.17zm94.5-109.17a16.75 16.75 0 0 1 16.664 16.547 16.448 16.448 0 0 1 -14.164 16.407v-15.523c0-6.1-1.7-11.431-3.942-17.431zm-74.5 17.431a32.5 32.5 0 0 1 65 0v2.282c-5-2.791-9.443-11.959-10.514-14.948a6.173 6.173 0 0 0 -4.46-3.851 6.1 6.1 0 0 0 -5.628 1.6 59.742 59.742 0 0 1 -42.098 17.486h-2.3zm0 16.591v-2.022h2.3a72.425 72.425 0 0 0 44.441-15.365c3.972 7.188 10.262 14.353 18.262 15.7v1.687c0 17.8-14.717 31.978-32.52 31.978h-.1a32.143 32.143 0 0 1 -32.383-31.978zm54.7 54.978a20.313 20.313 0 0 1 20.3 20.17v26.83h-83v-26.83a20.479 20.479 0 0 1 20.489-20.17z"/><path d="m61 261.541v28.479a5.85 5.85 0 0 0 5.842 5.98h108.275a5.884 5.884 0 0 0 5.883-5.98v-28.479a36.1 36.1 0 0 0 -32.98-35.818 45.226 45.226 0 0 0 17.98-36.233v-18.137a45.107 45.107 0 0 0 -45.021-45.353h-39.373a5.66 5.66 0 0 0 -5.606 5.98v57.51a45.226 45.226 0 0 0 17.98 36.233 36.1 36.1 0 0 0 -32.98 35.818zm27-123.541h32.979a33.421 33.421 0 0 1 31.773 23.161l-4.721 1.748a21.331 21.331 0 0 1 -18.924-2.08 32.7 32.7 0 0 0 -22.461-5.01l-18.646 2.636zm0 51.49v-18.918l20.31-2.871a20.973 20.973 0 0 1 14.378 3.2 33.17 33.17 0 0 0 18.039 5.315 32.035 32.035 0 0 0 11.329-2.062l1.944-.8v16.136a33 33 0 1 1 -66 0zm-15 72.051a23.5 23.5 0 0 1 23.8-23.541h48.355a23.532 23.532 0 0 1 23.845 23.541v22.459h-96z"/><path d="m329 161.541v28.479a5.884 5.884 0 0 0 5.883 5.98h108.275a5.85 5.85 0 0 0 5.842-5.98v-28.479a36.1 36.1 0 0 0 -32.98-35.818 45.223 45.223 0 0 0 17.98-36.233v-18.137a45.072 45.072 0 0 0 -44.979-45.353h-39.374a5.692 5.692 0 0 0 -5.647 5.98v57.51a45.223 45.223 0 0 0 17.98 36.233 36.1 36.1 0 0 0 -32.98 35.818zm27-123.541h33.021a33.42 33.42 0 0 1 31.772 23.161l-4.721 1.748a21.33 21.33 0 0 1 -18.923-2.08 32.756 32.756 0 0 0 -22.483-5.01l-18.666 2.636zm0 51.49v-18.918l20.33-2.872a21 21 0 0 1 14.39 3.2 33.181 33.181 0 0 0 18.043 5.315 31.938 31.938 0 0 0 11.311-2.062l1.926-.8v16.137a33 33 0 1 1 -66 0zm-15 72.051a23.532 23.532 0 0 1 23.843-23.541h48.357a23.5 23.5 0 0 1 23.8 23.541v22.459h-96z"/><path d="m454.5 440h-28.5v-226.155a5.815 5.815 0 0 0 -5.936-5.845h-63.135a5.809 5.809 0 0 0 -5.929 5.845v226.155h-57v-188.563a6.77 6.77 0 0 0 -6.433-6.437h-63.134a6.77 6.77 0 0 0 -6.433 6.437v188.563h-57v-122.778a6.133 6.133 0 0 0 -5.929-6.222h-63.135a6.139 6.139 0 0 0 -5.936 6.222v122.778h-28.5c-3.313 0-6.5 2.707-6.5 6.02v34c0 3.313 3.187 5.98 6.5 5.98h397c3.313 0 5.5-2.667 5.5-5.98v-34c0-3.313-2.187-6.02-5.5-6.02zm-91.5-220h51v148h-51zm0 160h51v60h-51zm-133-123h52v111h-52zm0 123h52v60h-52zm-132-57h51v45h-51zm0 57h51v60h-51zm350 94h-385v-22h385z"/></g></svg>