<svg height="512" viewBox="0 0 128 128" width="512" xmlns="http://www.w3.org/2000/svg"><g><path d="m66.356 23.23a30.492 30.492 0 1 0 8.933 21.563 30.3 30.3 0 0 0 -8.933-21.563zm-2.474 40.652a26.995 26.995 0 1 1 7.907-19.089 26.823 26.823 0 0 1 -7.907 19.089z"/><path d="m50.644 23.338a1.75 1.75 0 1 0 -.919 3.377 18.785 18.785 0 0 1 13.729 16.4 1.749 1.749 0 0 0 1.741 1.595q.078 0 .156-.006a1.751 1.751 0 0 0 1.589-1.9 22.3 22.3 0 0 0 -16.296-19.466z"/><path d="m42.65 22.661a22.1 22.1 0 0 0 -6.132 1.49 1.75 1.75 0 1 0 1.3 3.248 18.572 18.572 0 0 1 5.162-1.253 1.75 1.75 0 0 0 -.334-3.485z"/><path d="m121.311 106.4-26.9-26.9a7.249 7.249 0 0 0 -7.067-1.871l-9.662-9.663a40.235 40.235 0 0 0 -61.34-51.624 40.235 40.235 0 0 0 51.624 61.343l9.663 9.662a7.247 7.247 0 0 0 1.871 7.066l26.9 26.9a7.291 7.291 0 0 0 10.3 0l4.616-4.616a7.292 7.292 0 0 0 -.005-10.297zm-102.495-35.63a36.737 36.737 0 0 1 51.954-51.954 36.737 36.737 0 0 1 -51.954 51.954zm51.939 4.754c.854-.724 1.689-1.478 2.49-2.279s1.555-1.636 2.279-2.49l8.676 8.672c-.026.026-.054.048-.08.073l-4.62 4.615c-.025.026-.047.055-.073.081zm48.081 38.7-4.615 4.615a3.789 3.789 0 0 1 -5.349 0l-26.9-26.9a3.781 3.781 0 0 1 0-5.348l4.616-4.615a3.779 3.779 0 0 1 5.347 0l26.9 26.9a3.787 3.787 0 0 1 .001 5.345z"/></g></svg>