<svg id="Capa_1" enable-background="new 0 0 512 512" height="512" viewBox="0 0 512 512" width="512" xmlns="http://www.w3.org/2000/svg"><g><g><path d="m118.921 427v70c0 8.28-6.72 15-15 15h-60c-8.29 0-15-6.72-15-15v-70c0-8.28 6.71-15 15-15h60c8.28 0 15 6.72 15 15z" fill="#ff8066"/></g><g><path d="m238.921 352.84v144.16c0 8.28-6.72 15-15 15h-60c-8.29 0-15-6.72-15-15v-144.16c0-8.28 6.71-15 15-15h60c8.28 0 15 6.72 15 15z" fill="#fabe2c"/></g><g><path d="m358.92 241.65v255.35c0 8.28-6.72 15-15 15h-60c-8.29 0-15-6.72-15-15v-255.35c0-8.29 6.71-15 15-15h60c8.28 0 15 6.711 15 15z" fill="#ffe14d"/></g><g><path d="m478.92 131.041v365.959c0 8.28-6.72 15-15 15h-60c-8.29 0-15-6.72-15-15v-365.959c0-8.29 6.71-15 15-15h60c8.28 0 15 6.71 15 15z" fill="#97de3d"/></g><g><path d="m480.49 23.43-38.07 56.04c-2.8 4.11-7.44 6.57-12.41 6.57h-50.11l-53.7 102.56c-2.59 4.95-7.7 8.05-13.29 8.05h-50.12l-6.79 12.38-49.93 91.03c-2.64 4.8-7.68 7.78-13.16 7.78h-51.11l-46.53 67.66c-2.79 4.07-7.42 6.5-12.36 6.5h-39c-8.28 0-15-6.72-15-15s6.72-15 15-15h31.12l46.52-67.66c2.8-4.07 7.43-6.5 12.36-6.5h50.12l56.73-103.41c2.64-4.8 7.68-7.78 13.15-7.78h49.93l53.69-102.57c2.59-4.94 7.71-8.04 13.29-8.04h51.25l33.61-49.47c4.65-6.85 13.98-8.63 20.83-3.98 6.86 4.66 8.64 13.99 3.98 20.84z" fill="#334973"/></g><path d="m118.921 427v70c0 8.28-6.72 15-15 15h-30v-100h30c8.28 0 15 6.72 15 15z" fill="#ff4d4d"/><path d="m238.921 352.84v144.16c0 8.28-6.72 15-15 15h-30v-174.16h30c8.28 0 15 6.72 15 15z" fill="#ff9100"/><path d="m358.92 241.65v255.35c0 8.28-6.72 15-15 15h-30v-285.35h30c8.28 0 15 6.711 15 15z" fill="#fabe2c"/><path d="m478.92 131.041v365.959c0 8.28-6.72 15-15 15h-30v-395.959h30c8.28 0 15 6.71 15 15z" fill="#59c36a"/><path d="m480.49 23.43-38.07 56.04c-2.8 4.11-7.44 6.57-12.41 6.57h-50.11l-53.7 102.56c-2.59 4.95-7.7 8.05-13.29 8.05h-50.12l-6.79 12.38v-42.38h47.84l53.69-102.57c2.59-4.94 7.71-8.04 13.29-8.04h51.25l33.61-49.47c4.65-6.85 13.98-8.63 20.83-3.98 6.86 4.66 8.64 13.99 3.98 20.84z" fill="#1f3259"/></g></svg>