<svg id="Capa_1" enable-background="new 0 0 512 512" height="512" viewBox="0 0 512 512" width="512" xmlns="http://www.w3.org/2000/svg"><g><path d="m512 462.681h-512v-302.867h512z" fill="#fe4e28"/><path d="m256 159.814h256v302.867h-256z" fill="#d9270e"/><path d="m110 49.319h30v111.88h-30z" fill="#455da0"/><path d="m372 49.319h30v111.88h-30z" fill="#1f4270"/><path d="m162.404 348.757v26.854h-80.906v-116.331h79.432v26.854h-49.482v17.384h42.272v25.888h-42.272v19.351z" fill="#edf5ff"/><path d="m203.086 259.28 21.136 36.702 21.137-36.702h34.407l-38.831 58.985 37.521 57.346h-34.407l-19.826-35.063-19.825 35.063h-34.571l37.521-57.346-38.832-58.985z" fill="#edf5ff"/><g fill="#d5e8fe"><path d="m279.766 259.28h-23.766v36.101z"/><path d="m256 341.29v34.321h22.456z"/><path d="m287.958 375.611v-116.331h31.949v116.331z"/><path d="m430.502 287.134h-34.007v88.477h-30.949v-88.477h-34.006v-27.854h98.963v27.854z"/></g><circle cx="125" cy="161.198" fill="#ffda2d" r="32.88"/><circle cx="387" cy="161.198" fill="#fdbf00" r="32.88"/></g></svg>