<svg id="Capa_1" enable-background="new 0 0 512 512" height="512" viewBox="0 0 512 512" width="512" xmlns="http://www.w3.org/2000/svg"><g><g><path d="m512 72.638v366.724c0 5.687-4.615 10.302-10.302 10.302h-491.396c-5.687 0-10.302-4.615-10.302-10.302v-366.724c0-5.687 4.615-10.302 10.302-10.302h491.396c5.687 0 10.302 4.615 10.302 10.302z" fill="#e8e6ed"/><path d="m356.206 413.504v36.159h-200.412v-36.159c0-5.69 4.612-10.302 10.302-10.302h179.808c5.689.001 10.302 4.613 10.302 10.302z" fill="#ffb800"/><path d="m356.206 413.504v36.159h-40.651c9.179-18.873 11.528-36.108 11.991-46.461h18.358c5.689.001 10.302 4.613 10.302 10.302z" fill="#ff9700"/><path d="m512 72.638v366.724c0 5.687-4.615 10.302-10.302 10.302h-123.395c113.979-98.66 111.445-328.061 108.756-387.327h14.639c5.687-.001 10.302 4.614 10.302 10.301z" fill="#d1d0d8"/><path d="m512 72.638v54.631h-512v-54.631c0-5.687 4.615-10.302 10.302-10.302h491.396c5.687 0 10.302 4.615 10.302 10.302z" fill="#898993"/><path d="m512 72.638v54.631h-24.549c.845-28.289.237-51.19-.391-64.932h14.639c5.686-.001 10.301 4.614 10.301 10.301z" fill="#717177"/><g fill="#d1d0d8"><path d="m41.256 102.531c-.023 0-.045 0-.068 0l-.116-.001c-4.267-.037-7.696-3.526-7.659-7.793.037-4.244 3.489-7.66 7.724-7.66h.068l.116.001c4.267.037 7.696 3.526 7.659 7.793-.036 4.245-3.489 7.66-7.724 7.66z"/><path d="m64.582 102.531c-.023 0-.045 0-.068 0l-.116-.001c-4.267-.037-7.696-3.526-7.659-7.793.037-4.244 3.489-7.66 7.724-7.66h.068l.116.001c4.267.037 7.696 3.526 7.659 7.793-.036 4.245-3.488 7.66-7.724 7.66z"/><path d="m87.909 102.531c-.023 0-.045 0-.068 0l-.116-.001c-4.267-.037-7.696-3.526-7.659-7.793.037-4.244 3.489-7.66 7.724-7.66h.068l.116.001c4.267.037 7.696 3.526 7.659 7.793-.036 4.245-3.489 7.66-7.724 7.66z"/><path d="m470.862 102.53h-14.377c-4.267 0-7.726-3.459-7.726-7.726 0-4.268 3.459-7.726 7.726-7.726h14.377c4.267 0 7.726 3.459 7.726 7.726s-3.459 7.726-7.726 7.726z"/></g></g><g><path d="m115.795 449.664h-64.553v-269.708c0-5.69 4.612-10.302 10.302-10.302h43.95c5.69 0 10.302 4.612 10.302 10.302v269.708z" fill="#7a48ff"/><path d="m460.758 449.664h-64.554v-269.708c0-5.69 4.612-10.302 10.302-10.302h43.95c5.69 0 10.302 4.612 10.302 10.302z" fill="#22d0ff"/><path d="m460.759 308.889v140.774h-64.551v-17.575c30.318-33.552 50.798-77.304 64.551-123.199z" fill="#06b9ff"/></g><path d="m356.206 179.952v88.709c0 5.69-4.612 10.302-10.302 10.302h-179.808c-5.69 0-10.302-4.612-10.302-10.302v-88.709c0-5.69 4.612-10.302 10.302-10.302h179.808c5.689 0 10.302 4.612 10.302 10.302z" fill="#ff5677"/><g fill="#898993"><path d="m356.203 321.257h-200.406c-4.267 0-7.726-3.459-7.726-7.726s3.459-7.726 7.726-7.726h200.405c4.267 0 7.726 3.459 7.726 7.726s-3.458 7.726-7.725 7.726z"/><path d="m356.203 349.323h-142.44c-4.267 0-7.726-3.459-7.726-7.726s3.459-7.726 7.726-7.726h142.44c4.267 0 7.726 3.459 7.726 7.726s-3.459 7.726-7.726 7.726z"/><path d="m189.038 349.323h-33.241c-4.267 0-7.726-3.459-7.726-7.726s3.459-7.726 7.726-7.726h33.241c4.267 0 7.726 3.459 7.726 7.726s-3.459 7.726-7.726 7.726z"/><path d="m356.203 377.389h-200.406c-4.267 0-7.726-3.459-7.726-7.726 0-4.268 3.459-7.726 7.726-7.726h200.405c4.267 0 7.726 3.459 7.726 7.726.001 4.268-3.458 7.726-7.725 7.726z"/></g><path d="m356.206 179.952v88.709c0 5.69-4.612 10.302-10.302 10.302h-75.007c41.331-35.737 52.446-84.444 55.424-109.313h19.584c5.688 0 10.301 4.612 10.301 10.302z" fill="#ff2953"/></g></svg>